<?xml version="1.0" encoding="UTF-8"?>
<!DOCTYPE svg PUBLIC "-//W3C//DTD SVG 1.1//EN" "http://www.w3.org/Graphics/SVG/1.1/DTD/svg11.dtd">
<!-- Creator: CorelDRAW X7 -->
<svg xmlns="http://www.w3.org/2000/svg" xml:space="preserve" width="100%" height="100%" version="1.1" style="shape-rendering:geometricPrecision; text-rendering:geometricPrecision; image-rendering:optimizeQuality; fill-rule:evenodd; clip-rule:evenodd"
viewBox="0 0 1020 1501"
 xmlns:xlink="http://www.w3.org/1999/xlink">
 <defs>
  <style type="text/css">
   <![CDATA[
    .str5 {stroke:black;stroke-width:84.66;stroke-linecap:round;stroke-linejoin:round}
    .str4 {stroke:black;stroke-width:8.46;stroke-linecap:round;stroke-linejoin:round}
    .str2 {stroke:black;stroke-width:42.33;stroke-linecap:round;stroke-linejoin:round}
    .str1 {stroke:black;stroke-width:42.33;stroke-linecap:round;stroke-linejoin:round}
    .str0 {stroke:black;stroke-width:50.79;stroke-linecap:round;stroke-linejoin:round}
    .str3 {stroke:black;stroke-width:50.79;stroke-linecap:round;stroke-linejoin:round}
    .fil1 {fill:none}
    .fil2 {fill:black}
    .fil0 {fill:black;fill-rule:nonzero}
   ]]>
  </style>
 </defs>
 <g id="Layer_x0020_1">
  <metadata id="CorelCorpID_0Corel-Layer"/>
  <g id="Cirych">
   <g>
    <path class="fil0" d="M0 667c-2,-23 6,-45 18,-49 11,-3 22,12 24,35l-42 14zm366 412l1 85 -1 0 -3 0 -4 0 -6 0 -7 -1 -9 0 -10 -2 -11 -2 -12 -2 -12 -3 -14 -4 -14 -6 -15 -6 -15 -7 -16 -9 -16 -10 -16 -12 -16 -13 -16 -15 -16 -17 -16 -19 -15 -21 -15 -23 -15 -25 -13 -29 -13 -30 -12 -33 -10 -36 -9 -39 -8 -42 -7 -44 -5 -47 42 -14 4 41 6 37 6 35 8 33 9 30 10 27 10 26 12 24 12 21 13 20 13 18 14 17 14 14 14 14 14 11 15 11 14 9 14 8 14 7 14 5 13 5 13 4 11 3 11 2 10 2 9 1 8 1 7 0 5 0 4 0 2 0 1 0zm0 0c12,-1 21,18 22,41 0,23 -9,43 -21,44l-1 -85z"/>
   </g>
   <line class="fil1 str0" x1="367" y1="1121" x2="462" y2= "1216" />
   <line class="fil1 str1" x1="272" y1="1216" x2="427" y2= "1372" />
   <line class="fil1 str2" x1="306" y1="1372" x2="462" y2= "1216" />
   <line class="fil1 str3" x1="272" y1="1216" x2="367" y2= "1121" />
   <line class="fil1 str0" x1="654" y1="1121" x2="559" y2= "1216" />
   <polyline class="fil1 str2" points="554,462 755,393 816,438 "/>
   <path class="fil1 str4" d="M985 364c0,-199 -210,-360 -470,-360 -259,0 -469,161 -469,360"/>
   <polygon class="fil2" points="685,593 760,553 836,513 685,513 534,513 609,553 "/>
   <g>
    <path class="fil0" d="M978 653c2,-23 13,-38 25,-35 11,4 19,26 17,49l-42 -14zm-325 511l1 -85 1 0 2 0 4 0 5 0 7 0 8 -1 9 -1 10 -2 11 -2 12 -3 12 -4 13 -5 14 -5 14 -7 14 -8 15 -9 14 -11 14 -11 15 -14 14 -14 13 -17 14 -18 12 -20 13 -21 11 -24 11 -26 9 -27 9 -30 8 -33 7 -35 5 -37 4 -41 42 14 -5 47 -6 44 -8 42 -10 39 -10 36 -12 33 -13 30 -13 29 -14 25 -15 23 -16 21 -15 19 -16 17 -17 15 -16 13 -16 12 -16 10 -15 9 -16 7 -15 6 -14 6 -13 4 -13 3 -12 2 -11 2 -10 2 -8 0 -8 1 -6 0 -4 0 -3 0 -1 0zm0 0c-12,-1 -21,-21 -20,-44 0,-23 10,-42 21,-41l-1 85z"/>
   </g>
   <line class="fil1 str3" x1="749" y1="1216" x2="654" y2= "1121" />
   <path class="fil1 str5" d="M654 1121c0,-54 -65,-98 -144,-98 -79,0 -143,44 -143,98"/>
   <polyline class="fil1 str2" points="467,462 265,393 205,438 "/>
   <polygon class="fil2" points="336,593 411,553 487,513 336,513 185,513 260,553 "/>
   <circle class="fil2" cx="470" cy="817" r="20"/>
   <circle class="fil2" cx="550" cy="817" r="20"/>
   <line class="fil1 str2" x1="414" y1="1480" x2="306" y2= "1372" />
   <line class="fil1 str2" x1="593" y1="1372" x2="749" y2= "1216" />
   <line class="fil1 str1" x1="559" y1="1216" x2="714" y2= "1372" />
   <line class="fil1 str2" x1="427" y1="1372" x2="320" y2= "1480" />
   <line class="fil1 str2" x1="714" y1="1372" x2="607" y2= "1480" />
   <line class="fil1 str2" x1="701" y1="1480" x2="593" y2= "1372" />
  </g>
 </g>
</svg>
